# xmcd CD database file
#
# Track frame offsets:
#	150
#	15730
#	33723
#	46126
#	65310
#	79390
#	97947
#	115397
#	127837
#	146509
#	176328
#	190380
#	205663
#
# Disc length: 2953 seconds
#
# Revision: 0
# Processed by: cddbd v1.5.1PL2 Copyright (c) Steve Scherf et al.
# Submitted via: CDex 1.51
#
DISCID=ab0b870d
DTITLE=Paula Meijide - Paula Meijide
DYEAR=2006
DGENRE=Jazz
TTITLE0=I ve got the world on a string
TTITLE1=Nostalgia in Times Square
TTITLE2=I can´t give you anything but love
TTITLE3=You belong to my heart
TTITLE4=Despertar
TTITLE5=Umbral
TTITLE6=Bolero
TTITLE7=Perdida
TTITLE8=I´ve got you under my skin
TTITLE9=Black Coffe
TTITLE10=Get that way
TTITLE11=Debo dejar
TTITLE12=Nunca
EXTD=YEAR: 2006
EXTT0=
EXTT1=
EXTT2=
EXTT3=
EXTT4=
EXTT5=
EXTT6=
EXTT7=
EXTT8=
EXTT9=
EXTT10=
EXTT11=
EXTT12=
PLAYORDER=
